<?xml version="1.0" encoding="utf-8"?>
<!-- Generator: Adobe Illustrator 21.1.0, SVG Export Plug-In . SVG Version: 6.00 Build 0)  -->
<svg version="1.1" id="Layer_1" xmlns="http://www.w3.org/2000/svg" xmlns:xlink="http://www.w3.org/1999/xlink" x="0px" y="0px"
	 viewBox="0 0 213 73" style="enable-background:new 0 0 213 73;" xml:space="preserve">
<style type="text/css">
	.st0{fill:#139847;}
	.st0:hover{fill:#1ce368;}
</style>
<path class="st0" d="M84.2,18.2c3.5,0,7,0,10.7,0c0.2-2.9,0.4-5.5,0.6-8.1c0.5,0,1.1,0,1.6,0c0.2,1.1,0.4,2.3,0.6,3.4c0.2,1.2,0.3,2.4,0.5,3.6
c0.5,0,1,0,1.4,0.1c0.2-1.4,0.5-2.8,0.5-4.3c0.1-1.6,0-3.3,0-4.9c6-1,6-1,6.8,10.1c11.7-1.7,6.4,9.5,10.8,14.3
c4.8,0,9.9,0.2,15.1,0c16.9-0.7,33.1,2.4,48.8,8.5c3.2,1.2,6.4,2.8,9.6,3.1c1.9,0.1,4-2.1,5.8-3.8c3.4-1.4,5.5-0.5,6,3.8
c0.2,2,2.4,3.7,3.4,5.7c0.4,0.9,0.3,2.3-0.1,3.4c-0.8,2.3-1.7,4.5-2.8,6.7c-0.5,1-1.2,2.6-2,2.7c-1.4,0.2-3.9-0.3-4.2-1.1
c-2-5.7-6.5-3.6-10-3.3c-7.1,0.5-14.2,1.8-21.3,2.6c-9.6,1.1-19.2,2.1-28.7,3c-1.5,0.2-3,0.1-4.5,0.1c-34,0-67.9,0.1-101.9-0.1
c-4.5,0-9.2-0.6-13.4-2.2c-6.6-2.5-8.7-7.6-7.3-15.9c0.9-5.3,5.5-8.1,10-9.1c7.9-1.7,16.1-2.7,24.2-3.1c9.9-0.5,19.9-0.2,29.8,0
c3.6,0,5.8-0.3,6-5C80.6,25,82.8,21.8,84.2,18.2z"/>
</svg>
